<mxfile host="app.diagrams.net" agent="Mozilla/5.0 (Macintosh; Intel Mac OS X 10_15_7) AppleWebKit/605.1.15 (KHTML, like Gecko) Version/17.5 Safari/605.1.15" version="24.7.6">
  <diagram name="Page-1" id="AJAhFHJ_Go3_ga1CZ8aM">
    <mxGraphModel dx="327" dy="240" grid="1" gridSize="10" guides="1" tooltips="1" connect="1" arrows="1" fold="1" page="1" pageScale="1" pageWidth="827" pageHeight="1169" math="0" shadow="0">
      <root>
        <mxCell id="0" />
        <mxCell id="1" parent="0" />
        <mxCell id="PiWjYV5-vH6JJQaB_8J0-2" value="" style="rounded=0;whiteSpace=wrap;html=1;fillColor=#33001A;" parent="1" vertex="1">
          <mxGeometry x="543" y="140" width="150" height="162" as="geometry" />
        </mxCell>
        <mxCell id="PiWjYV5-vH6JJQaB_8J0-3" value="&lt;font style=&quot;font-size: 8px;&quot;&gt;PANEL&lt;/font&gt;" style="rounded=0;whiteSpace=wrap;html=1;fillColor=#fad7ac;strokeColor=#b46504;" parent="1" vertex="1">
          <mxGeometry x="543" y="302" width="150" height="48" as="geometry" />
        </mxCell>
        <mxCell id="PiWjYV5-vH6JJQaB_8J0-5" value="&lt;font style=&quot;font-size: 8px;&quot;&gt;PANEL&lt;/font&gt;" style="rounded=0;whiteSpace=wrap;html=1;fillColor=#fad7ac;strokeColor=#b46504;" parent="1" vertex="1">
          <mxGeometry x="693" y="140" width="36" height="210" as="geometry" />
        </mxCell>
        <mxCell id="PiWjYV5-vH6JJQaB_8J0-6" value="" style="rounded=0;whiteSpace=wrap;html=1;fillColor=#33001A;" parent="1" vertex="1">
          <mxGeometry x="468" y="140" width="75" height="120" as="geometry" />
        </mxCell>
        <mxCell id="PiWjYV5-vH6JJQaB_8J0-7" value="TV (41.5 X 24)" style="rounded=0;whiteSpace=wrap;html=1;" parent="1" vertex="1">
          <mxGeometry x="556" y="187" width="124.5" height="72" as="geometry" />
        </mxCell>
        <mxCell id="PiWjYV5-vH6JJQaB_8J0-8" value="&lt;font style=&quot;font-size: 8px;&quot; color=&quot;#ffffff&quot;&gt;FOLDABLE&lt;/font&gt;&lt;div style=&quot;font-size: 8px;&quot;&gt;&lt;font style=&quot;font-size: 8px;&quot; color=&quot;#ffffff&quot;&gt;LAPTOP&lt;/font&gt;&lt;/div&gt;&lt;div style=&quot;font-size: 8px;&quot;&gt;&lt;font style=&quot;font-size: 8px;&quot; color=&quot;#ffffff&quot;&gt;STAND&lt;/font&gt;&lt;/div&gt;" style="rounded=0;whiteSpace=wrap;html=1;strokeColor=#000000;fillColor=#33001A;" parent="1" vertex="1">
          <mxGeometry x="468" y="260" width="75" height="90" as="geometry" />
        </mxCell>
        <mxCell id="PiWjYV5-vH6JJQaB_8J0-13" value="&lt;span style=&quot;caret-color: rgb(255, 255, 255); color: rgb(255, 255, 255); font-size: 2px;&quot;&gt;SHELF (Depth 2 + 7&quot;)&amp;nbsp;&lt;/span&gt;" style="rounded=0;whiteSpace=wrap;html=1;fillColor=#33001A;strokeColor=#FFFFFF;fontSize=3;spacingBottom=-6;fontStyle=1" parent="1" vertex="1">
          <mxGeometry x="471" y="186" width="70" height="3" as="geometry" />
        </mxCell>
        <mxCell id="PiWjYV5-vH6JJQaB_8J0-14" value="&lt;font size=&quot;1&quot; color=&quot;#ffffff&quot;&gt;&lt;span style=&quot;caret-color: rgb(255, 255, 255); font-size: 2px;&quot;&gt;SHELF (Depth 2 + 7&quot;)&amp;nbsp;&lt;/span&gt;&lt;/font&gt;" style="rounded=0;whiteSpace=wrap;html=1;strokeColor=#FFFFFF;fillColor=#33001A;spacingBottom=1;fontSize=2;fontStyle=1" parent="1" vertex="1">
          <mxGeometry x="545" y="169" width="146" height="3" as="geometry" />
        </mxCell>
        <mxCell id="PiWjYV5-vH6JJQaB_8J0-15" value="&lt;font style=&quot;font-size: 3px;&quot; color=&quot;#ffffff&quot;&gt;&lt;sup&gt;LIGHTS - BOX (Depth - 2 + 4&quot;)&lt;/sup&gt;&lt;/font&gt;" style="rounded=0;whiteSpace=wrap;html=1;strokeColor=#CC6600;fillColor=#33001A;labelPosition=center;verticalLabelPosition=middle;align=center;verticalAlign=middle;spacing=2;spacingBottom=3;" parent="1" vertex="1">
          <mxGeometry x="468" y="134" width="261" height="5" as="geometry" />
        </mxCell>
        <mxCell id="PiWjYV5-vH6JJQaB_8J0-18" value="socket switch&lt;div&gt;3 + 3&lt;/div&gt;" style="rounded=1;whiteSpace=wrap;html=1;strokeColor=#FF9999;fillColor=#FFFFFF;fontSize=4;" parent="1" vertex="1">
          <mxGeometry x="510" y="231" width="30" height="10" as="geometry" />
        </mxCell>
        <mxCell id="PiWjYV5-vH6JJQaB_8J0-19" value="switch&lt;div&gt;8&lt;/div&gt;" style="rounded=1;whiteSpace=wrap;html=1;fillColor=#FFFFFF;strokeColor=#FF9999;fontSize=4;" parent="1" vertex="1">
          <mxGeometry x="701" y="230" width="26" height="10" as="geometry" />
        </mxCell>
        <mxCell id="PiWjYV5-vH6JJQaB_8J0-20" value="socket&lt;div&gt;2&lt;/div&gt;" style="rounded=1;whiteSpace=wrap;html=1;strokeColor=#FF9999;fontSize=4;" parent="1" vertex="1">
          <mxGeometry x="660" y="231" width="17" height="9" as="geometry" />
        </mxCell>
        <mxCell id="PiWjYV5-vH6JJQaB_8J0-23" value="bulb" style="ellipse;whiteSpace=wrap;html=1;aspect=fixed;fillColor=#000000;fillStyle=solid;fontColor=#ffffff;strokeColor=#FF9999;fontSize=3;" parent="1" vertex="1">
          <mxGeometry x="482" y="189" width="8" height="8" as="geometry" />
        </mxCell>
        <mxCell id="PiWjYV5-vH6JJQaB_8J0-24" value="bulb" style="ellipse;whiteSpace=wrap;html=1;aspect=fixed;strokeColor=#FF9999;fillColor=#000000;fontSize=3;fontColor=#FFFFFF;" parent="1" vertex="1">
          <mxGeometry x="523" y="189" width="8" height="8" as="geometry" />
        </mxCell>
        <mxCell id="PiWjYV5-vH6JJQaB_8J0-25" value="bulb" style="ellipse;whiteSpace=wrap;html=1;aspect=fixed;strokeColor=#FF9999;fillColor=#000000;fontSize=3;fontColor=#FFFFFF;" parent="1" vertex="1">
          <mxGeometry x="503" y="138" width="8" height="8" as="geometry" />
        </mxCell>
        <mxCell id="PiWjYV5-vH6JJQaB_8J0-26" value="bulb" style="ellipse;whiteSpace=wrap;html=1;aspect=fixed;strokeColor=#FF9999;fillColor=#000000;fontColor=#FFFFFF;fontSize=3;" parent="1" vertex="1">
          <mxGeometry x="676.5" y="138" width="8" height="8" as="geometry" />
        </mxCell>
        <mxCell id="PiWjYV5-vH6JJQaB_8J0-27" value="bulb" style="ellipse;whiteSpace=wrap;html=1;aspect=fixed;strokeColor=#FF9999;fillColor=#000000;fontSize=3;fontColor=#FFFFFF;" parent="1" vertex="1">
          <mxGeometry x="614.25" y="138" width="8" height="8" as="geometry" />
        </mxCell>
        <mxCell id="PiWjYV5-vH6JJQaB_8J0-29" value="bulb" style="ellipse;whiteSpace=wrap;html=1;aspect=fixed;strokeColor=#FF9999;fillColor=#000000;fontSize=3;fontColor=#FFFFFF;" parent="1" vertex="1">
          <mxGeometry x="560" y="138" width="8" height="8" as="geometry" />
        </mxCell>
        <mxCell id="PiWjYV5-vH6JJQaB_8J0-30" value="" style="endArrow=classic;startArrow=classic;html=1;rounded=0;strokeWidth=0.5;dashed=1;" parent="1" edge="1">
          <mxGeometry width="50" height="50" relative="1" as="geometry">
            <mxPoint x="740" y="350" as="sourcePoint" />
            <mxPoint x="740" y="140" as="targetPoint" />
          </mxGeometry>
        </mxCell>
        <mxCell id="PiWjYV5-vH6JJQaB_8J0-31" value="&lt;font style=&quot;font-size: 7px;&quot;&gt;70&#39;&#39;&lt;/font&gt;" style="edgeLabel;html=1;align=center;verticalAlign=middle;resizable=0;points=[];" parent="PiWjYV5-vH6JJQaB_8J0-30" vertex="1" connectable="0">
          <mxGeometry x="0.1182" y="-1" relative="1" as="geometry">
            <mxPoint as="offset" />
          </mxGeometry>
        </mxCell>
        <mxCell id="PiWjYV5-vH6JJQaB_8J0-32" value="" style="endArrow=classic;startArrow=classic;html=1;rounded=0;strokeWidth=0.5;dashed=1;" parent="1" edge="1">
          <mxGeometry width="50" height="50" relative="1" as="geometry">
            <mxPoint x="692" y="360" as="sourcePoint" />
            <mxPoint x="544" y="360" as="targetPoint" />
          </mxGeometry>
        </mxCell>
        <mxCell id="PiWjYV5-vH6JJQaB_8J0-33" value="&lt;font style=&quot;font-size: 7px;&quot;&gt;50&#39;&#39;&lt;/font&gt;" style="edgeLabel;html=1;align=center;verticalAlign=middle;resizable=0;points=[];" parent="PiWjYV5-vH6JJQaB_8J0-32" vertex="1" connectable="0">
          <mxGeometry x="0.1182" y="-1" relative="1" as="geometry">
            <mxPoint as="offset" />
          </mxGeometry>
        </mxCell>
        <mxCell id="PiWjYV5-vH6JJQaB_8J0-34" value="" style="endArrow=classic;startArrow=classic;html=1;rounded=0;strokeWidth=0.5;dashed=1;" parent="1" edge="1">
          <mxGeometry width="50" height="50" relative="1" as="geometry">
            <mxPoint x="730" y="360" as="sourcePoint" />
            <mxPoint x="693" y="360" as="targetPoint" />
          </mxGeometry>
        </mxCell>
        <mxCell id="PiWjYV5-vH6JJQaB_8J0-35" value="&lt;font style=&quot;font-size: 7px;&quot;&gt;12&quot;&lt;/font&gt;" style="edgeLabel;html=1;align=center;verticalAlign=middle;resizable=0;points=[];" parent="PiWjYV5-vH6JJQaB_8J0-34" vertex="1" connectable="0">
          <mxGeometry x="0.1182" y="-1" relative="1" as="geometry">
            <mxPoint as="offset" />
          </mxGeometry>
        </mxCell>
        <mxCell id="PiWjYV5-vH6JJQaB_8J0-36" value="" style="endArrow=classic;startArrow=classic;html=1;rounded=0;strokeWidth=0.5;dashed=1;" parent="1" edge="1">
          <mxGeometry width="50" height="50" relative="1" as="geometry">
            <mxPoint x="700" y="350" as="sourcePoint" />
            <mxPoint x="700" y="302" as="targetPoint" />
          </mxGeometry>
        </mxCell>
        <mxCell id="PiWjYV5-vH6JJQaB_8J0-37" value="&lt;font style=&quot;font-size: 7px;&quot;&gt;16&quot;&lt;/font&gt;" style="edgeLabel;html=1;align=center;verticalAlign=middle;resizable=0;points=[];" parent="PiWjYV5-vH6JJQaB_8J0-36" vertex="1" connectable="0">
          <mxGeometry x="0.1182" y="-1" relative="1" as="geometry">
            <mxPoint as="offset" />
          </mxGeometry>
        </mxCell>
        <mxCell id="PiWjYV5-vH6JJQaB_8J0-39" value="" style="endArrow=classic;startArrow=classic;html=1;rounded=0;strokeWidth=0.5;dashed=1;" parent="1" edge="1">
          <mxGeometry width="50" height="50" relative="1" as="geometry">
            <mxPoint x="543" y="360" as="sourcePoint" />
            <mxPoint x="469" y="360" as="targetPoint" />
          </mxGeometry>
        </mxCell>
        <mxCell id="PiWjYV5-vH6JJQaB_8J0-40" value="&lt;font style=&quot;font-size: 7px;&quot;&gt;25&quot;&lt;/font&gt;" style="edgeLabel;html=1;align=center;verticalAlign=middle;resizable=0;points=[];" parent="PiWjYV5-vH6JJQaB_8J0-39" vertex="1" connectable="0">
          <mxGeometry x="0.1182" y="-1" relative="1" as="geometry">
            <mxPoint as="offset" />
          </mxGeometry>
        </mxCell>
        <mxCell id="PiWjYV5-vH6JJQaB_8J0-41" value="" style="endArrow=classic;startArrow=classic;html=1;rounded=0;strokeWidth=0.5;dashed=1;" parent="1" edge="1">
          <mxGeometry width="50" height="50" relative="1" as="geometry">
            <mxPoint x="450" y="350" as="sourcePoint" />
            <mxPoint x="450" y="260" as="targetPoint" />
          </mxGeometry>
        </mxCell>
        <mxCell id="PiWjYV5-vH6JJQaB_8J0-42" value="&lt;font style=&quot;font-size: 7px;&quot;&gt;30&quot;&lt;/font&gt;" style="edgeLabel;html=1;align=center;verticalAlign=middle;resizable=0;points=[];" parent="PiWjYV5-vH6JJQaB_8J0-41" vertex="1" connectable="0">
          <mxGeometry x="0.1182" y="-1" relative="1" as="geometry">
            <mxPoint as="offset" />
          </mxGeometry>
        </mxCell>
        <mxCell id="PiWjYV5-vH6JJQaB_8J0-46" value="" style="endArrow=classic;startArrow=classic;html=1;rounded=0;strokeWidth=0.5;dashed=1;" parent="1" edge="1">
          <mxGeometry width="50" height="50" relative="1" as="geometry">
            <mxPoint x="450" y="259" as="sourcePoint" />
            <mxPoint x="450" y="140" as="targetPoint" />
          </mxGeometry>
        </mxCell>
        <mxCell id="PiWjYV5-vH6JJQaB_8J0-47" value="&lt;font style=&quot;font-size: 7px;&quot;&gt;40&quot;&lt;/font&gt;" style="edgeLabel;html=1;align=center;verticalAlign=middle;resizable=0;points=[];" parent="PiWjYV5-vH6JJQaB_8J0-46" vertex="1" connectable="0">
          <mxGeometry x="0.1182" y="-1" relative="1" as="geometry">
            <mxPoint as="offset" />
          </mxGeometry>
        </mxCell>
      </root>
    </mxGraphModel>
  </diagram>
</mxfile>
